<?xml version="1.0" standalone="no"?>
<!DOCTYPE svg PUBLIC "-//W3C//DTD SVG 20010904//EN"
 "http://www.w3.org/TR/2001/REC-SVG-20010904/DTD/svg10.dtd">
<svg version="1.0" xmlns="http://www.w3.org/2000/svg"
 width="3464.000000pt" height="3464.000000pt" viewBox="0 0 3464.000000 3464.000000"
 preserveAspectRatio="xMidYMid meet">
<metadata>
Created by potrace 1.14, written by Peter Selinger 2001-2017
</metadata>
<g transform="translate(0.000000,3464.000000) scale(0.100000,-0.100000)"
fill="#000000" stroke="none">
<path d="M21593 33483 c-301 -610 -427 -868 -683 -1398 -43 -88 -115 -236
-160 -330 -119 -244 -305 -631 -405 -840 -129 -271 -167 -349 -235 -490 -40
-82 -85 -177 -100 -210 -15 -33 -50 -108 -79 -166 -28 -59 -51 -112 -51 -118
0 -6 -4 -11 -10 -11 -5 0 -10 -5 -10 -11 0 -7 -15 -44 -34 -83 -50 -104 -143
-300 -183 -386 -19 -41 -64 -135 -99 -208 -35 -74 -64 -135 -64 -137 0 -2 -38
-83 -85 -180 -47 -97 -85 -178 -85 -179 0 -2 -24 -55 -54 -117 -58 -123 -181
-386 -226 -484 -49 -107 -222 -478 -258 -555 -20 -41 -36 -77 -37 -80 0 -3
-20 -45 -43 -93 -23 -49 -42 -90 -42 -92 0 -2 -20 -46 -44 -97 -24 -51 -67
-145 -96 -208 -29 -63 -66 -144 -82 -180 -17 -36 -63 -137 -103 -225 -40 -88
-89 -195 -109 -238 -20 -43 -36 -80 -36 -82 0 -2 -20 -45 -44 -97 -24 -51 -98
-217 -166 -368 -67 -151 -134 -300 -147 -330 -14 -30 -61 -136 -105 -235 -43
-99 -85 -193 -93 -210 -62 -138 -268 -609 -412 -945 -41 -96 -83 -193 -93
-215 -18 -41 -127 -299 -175 -415 -15 -36 -33 -78 -40 -95 -15 -32 -125 -297
-220 -530 -72 -174 -270 -669 -300 -750 -13 -33 -42 -109 -65 -170 -196 -511
-529 -1431 -557 -1540 -2 -11 -7 -27 -11 -35 -3 -8 -6 -17 -7 -20 -3 -13 -78
-249 -90 -286 -32 -97 -157 -545 -169 -604 -3 -14 -16 -74 -30 -133 -14 -59
-30 -131 -35 -160 -6 -29 -13 -63 -16 -77 -6 -30 -22 -122 -30 -170 -3 -19 -7
-46 -10 -60 -2 -14 -7 -45 -10 -70 -3 -25 -8 -61 -10 -80 -3 -19 -7 -52 -9
-72 -34 -277 -25 -742 19 -998 3 -14 9 -52 15 -85 23 -132 100 -409 147 -530
8 -22 19 -49 23 -60 4 -11 17 -41 29 -67 12 -26 21 -51 21 -54 0 -4 40 -88 89
-188 184 -375 409 -728 779 -1229 81 -109 154 -207 162 -216 8 -10 26 -33 40
-51 14 -18 74 -94 134 -169 493 -617 728 -963 921 -1356 126 -255 196 -442
259 -690 30 -115 37 -149 51 -230 13 -72 35 -243 41 -315 18 -222 2 -640 -32
-845 -50 -293 -64 -367 -109 -545 -85 -340 -162 -584 -320 -1020 -73 -201
-141 -386 -172 -465 -19 -49 -57 -148 -84 -220 -90 -233 -280 -705 -334 -830
-7 -16 -59 -138 -115 -270 -57 -132 -118 -273 -136 -313 -19 -41 -34 -75 -34
-77 0 -2 -13 -32 -29 -67 -16 -35 -72 -157 -124 -273 -91 -202 -112 -248 -209
-455 -94 -201 -128 -270 -369 -755 -255 -514 -389 -774 -554 -1080 -18 -33
-49 -91 -70 -130 -21 -38 -63 -117 -95 -175 -31 -58 -71 -130 -87 -160 -63
-116 -237 -427 -260 -462 -12 -21 -23 -40 -23 -43 0 -8 -340 -588 -518 -885
-383 -637 -814 -1310 -1115 -1739 -71 -101 -130 -188 -133 -195 -3 -8 520
-543 600 -614 6 -5 320 447 592 853 71 105 131 192 134 195 6 6 178 263 550
820 277 416 473 713 713 1083 43 64 111 170 154 235 117 179 415 644 553 862
68 107 142 224 165 260 75 117 343 545 370 592 6 10 42 68 80 130 39 61 72
117 74 122 2 6 8 15 13 21 10 10 370 604 461 758 29 49 59 100 68 115 54 90
332 566 392 672 10 19 49 87 85 150 36 63 98 174 137 245 40 72 82 148 95 169
12 22 33 63 48 90 14 28 31 58 38 66 7 8 13 20 14 25 1 6 24 51 51 101 156
289 519 1017 519 1040 0 2 23 51 50 109 28 58 50 108 50 110 0 2 13 32 29 67
91 200 270 636 349 848 19 52 48 131 64 175 38 104 130 379 158 475 12 41 26
86 31 100 24 70 121 448 135 529 2 8 10 46 18 85 9 39 18 85 21 101 3 17 7 41
9 55 16 85 26 151 31 195 4 28 8 61 10 75 2 14 7 52 10 85 4 33 8 76 10 95 7
63 18 293 18 390 0 91 -12 338 -18 370 -1 8 -6 46 -10 83 -3 37 -8 78 -11 90
-2 12 -6 37 -9 57 -3 20 -8 47 -10 60 -3 14 -8 39 -11 55 -29 166 -95 397
-170 599 -52 138 -156 370 -227 506 -229 437 -508 853 -1120 1670 -226 303
-205 274 -299 405 -253 352 -516 803 -633 1085 -15 36 -33 79 -40 95 -18 42
-39 98 -42 110 -1 6 -11 35 -22 65 -85 223 -158 575 -177 855 -12 171 -5 549
11 635 2 8 6 47 10 85 4 39 9 77 10 85 1 8 6 40 10 70 4 30 9 64 11 75 2 11 6
34 9 50 12 67 27 145 46 230 10 50 22 100 24 113 11 50 15 68 50 204 76 299
254 871 365 1168 17 47 37 103 44 125 8 22 48 135 91 250 42 116 94 257 115
315 21 58 83 227 140 375 56 149 103 275 104 280 1 6 18 53 39 105 20 52 106
277 191 500 243 636 327 853 341 885 13 30 148 376 151 385 0 3 4 14 9 25 5
11 43 108 85 215 42 107 80 204 85 215 4 11 9 25 11 30 4 15 663 1656 679
1690 7 17 23 55 34 85 12 30 26 64 31 75 5 11 29 70 54 130 108 269 159 392
171 420 7 17 32 77 55 135 23 58 48 119 55 135 7 17 34 81 59 143 26 63 58
141 72 175 40 94 47 111 50 122 3 11 178 434 199 480 7 17 34 82 60 145 26 63
55 133 65 155 10 22 45 108 79 190 34 83 68 164 76 180 7 17 23 55 35 85 12
30 28 69 35 85 8 17 37 86 65 155 28 69 58 139 65 155 12 28 192 453 357 845
38 91 75 179 83 195 7 17 45 107 85 200 39 94 78 184 85 200 7 17 53 122 100
235 48 113 95 223 105 245 10 22 43 101 75 175 31 74 63 149 70 166 8 16 37
84 65 149 54 126 66 154 98 225 11 25 32 74 46 110 15 36 34 80 43 99 41 90
135 308 140 324 4 12 -4 26 -23 42 -103 85 -670 535 -674 535 -3 0 -92 -174
-197 -387z"/>
<path d="M15887 24583 c-1 0 -110 -4 -242 -8 -132 -4 -276 -8 -320 -10 -170
-7 -352 -16 -405 -20 -30 -2 -107 -7 -170 -10 -63 -3 -131 -8 -150 -10 -19 -2
-87 -7 -150 -11 -63 -3 -122 -7 -130 -9 -8 -2 -58 -6 -110 -10 -52 -4 -103 -9
-113 -11 -10 -2 -55 -6 -100 -9 -45 -3 -89 -8 -97 -10 -8 -2 -50 -7 -92 -10
-42 -3 -87 -8 -100 -11 -13 -2 -45 -6 -73 -9 -27 -3 -66 -7 -85 -10 -19 -3
-55 -7 -79 -10 -23 -3 -55 -7 -70 -9 -14 -3 -46 -8 -71 -11 -25 -4 -61 -8 -80
-11 -19 -3 -60 -9 -90 -14 -30 -5 -73 -12 -95 -15 -22 -3 -51 -8 -65 -11 -14
-2 -38 -7 -55 -10 -30 -5 -222 -40 -260 -48 -120 -24 -259 -54 -395 -87 -91
-22 -172 -42 -180 -44 -35 -8 -251 -66 -315 -86 -38 -11 -83 -24 -100 -29 -47
-12 -294 -92 -335 -107 -8 -3 -19 -7 -25 -8 -91 -22 -738 -280 -985 -393 -36
-16 -85 -39 -110 -50 -184 -83 -709 -340 -720 -352 -3 -3 -59 -32 -125 -66
-137 -69 -522 -276 -639 -343 -89 -51 -113 -79 -410 -461 -250 -322 -323 -424
-550 -765 -417 -627 -728 -1231 -984 -1910 -57 -153 -155 -441 -152 -447 1 -2
-5 -21 -14 -43 -25 -67 -122 -424 -142 -525 -3 -14 -9 -38 -14 -55 -5 -16 -11
-41 -14 -55 -2 -14 -16 -81 -30 -150 -28 -140 -62 -329 -72 -405 -3 -27 -8
-58 -10 -69 -2 -10 -6 -44 -9 -75 -4 -31 -8 -63 -10 -71 -2 -8 -7 -51 -11 -95
-3 -44 -8 -89 -10 -100 -2 -11 -7 -58 -10 -105 -3 -47 -7 -98 -9 -114 -26
-205 -26 -1164 -1 -1386 7 -54 17 -160 21 -210 4 -41 10 -91 20 -160 2 -14 6
-45 9 -70 6 -48 40 -250 57 -340 6 -30 13 -68 15 -85 3 -16 24 -106 46 -200
45 -195 42 -181 64 -260 9 -33 18 -67 19 -75 29 -128 225 -713 305 -905 4 -11
29 -74 55 -140 93 -236 303 -717 445 -1020 23 -49 70 -151 105 -225 35 -74 93
-198 129 -275 37 -77 92 -192 122 -255 30 -63 96 -203 147 -310 l92 -195 194
-98 c106 -54 195 -96 197 -94 3 2 -37 120 -87 263 -81 232 -378 1114 -383
1139 -1 6 -7 26 -13 45 -6 19 -28 89 -48 155 -20 66 -48 156 -62 200 -14 44
-27 87 -28 95 -2 8 -20 71 -40 140 -21 69 -39 132 -41 140 -2 8 -12 49 -24 90
-30 112 -120 469 -129 515 -5 22 -21 94 -36 160 -15 66 -29 136 -32 155 -2 19
-6 42 -9 50 -3 8 -14 67 -25 130 -26 152 -27 159 -34 205 -13 85 -15 101 -20
125 -5 29 -12 90 -20 175 -3 33 -8 67 -10 75 -2 8 -7 56 -10 105 -4 50 -8 106
-10 125 -20 179 -26 872 -12 1140 16 276 26 410 32 420 10 16 561 185 945 290
19 5 67 18 105 29 85 24 585 150 710 179 192 45 326 75 485 108 91 20 172 37
181 39 9 2 33 6 54 9 20 4 40 8 44 10 3 2 28 7 55 10 27 4 52 9 56 11 3 2 24
6 46 9 22 4 51 9 64 11 14 3 52 10 85 15 33 5 71 12 85 15 60 12 77 15 115 20
35 5 93 14 200 31 17 2 41 6 55 9 14 2 45 7 70 10 25 4 56 8 70 10 14 2 48 6
75 10 28 3 61 8 75 10 14 2 52 6 85 10 32 4 66 8 75 10 8 2 49 6 90 10 41 4
86 9 100 10 14 2 59 6 100 10 41 3 95 8 120 10 25 3 83 7 130 10 47 3 117 8
155 11 39 3 226 7 418 10 325 4 347 3 348 -14 1 -24 8 -60 20 -107 6 -22 13
-51 16 -65 19 -112 105 -434 158 -596 113 -344 300 -692 683 -1269 351 -527
566 -801 985 -1259 36 -38 187 -199 453 -482 72 -76 142 -151 156 -166 56 -62
157 -176 189 -213 19 -22 36 -42 39 -45 3 -3 44 -52 91 -110 227 -279 404
-567 507 -825 35 -89 78 -214 87 -255 2 -8 10 -43 19 -77 20 -78 35 -153 42
-218 3 -27 7 -56 10 -63 16 -51 23 -404 10 -562 -12 -154 -15 -184 -31 -285
-3 -16 -7 -41 -9 -55 -12 -74 -19 -112 -33 -175 -8 -38 -17 -83 -20 -99 -4
-22 -59 -241 -88 -346 -2 -8 -17 -58 -34 -110 -16 -52 -28 -96 -27 -98 2 -2
77 40 166 94 l163 97 92 191 c112 232 189 416 249 598 43 129 91 303 102 366
3 15 7 34 9 42 5 17 8 33 29 170 35 227 38 463 11 744 -2 22 -7 57 -10 78 -4
21 -8 48 -10 61 -58 390 -260 935 -513 1387 -14 25 -39 70 -55 100 -201 364
-526 837 -960 1398 -54 70 -112 146 -130 170 -18 24 -36 48 -42 55 -21 25 -71
94 -104 142 -19 28 -37 52 -41 55 -13 10 -220 328 -290 445 -66 111 -223 417
-262 510 -63 152 -133 361 -164 490 -4 17 -8 35 -10 40 -5 24 -43 234 -48 274
-40 278 -22 714 44 1056 5 28 12 61 14 75 2 14 14 69 26 124 12 54 23 106 25
115 10 48 73 277 115 421 125 421 251 775 582 1635 111 286 221 572 245 635
24 63 47 124 52 135 5 11 33 81 61 155 29 74 88 227 132 340 43 113 83 214 88
225 4 11 57 144 115 295 59 151 131 337 161 412 30 75 54 139 54 143 0 3 9 24
19 48 10 23 63 155 116 292 54 138 154 391 221 563 68 172 127 323 130 336 l6
23 -112 -1 c-61 0 -112 -2 -113 -3z m-1627 -1339 c-10 -26 -142 -336 -165
-389 -8 -16 -63 -142 -123 -280 -60 -137 -121 -275 -135 -305 -189 -415 -577
-1333 -577 -1366 0 -3 -7 -20 -15 -37 -24 -54 -239 -651 -250 -697 -2 -8 -12
-40 -23 -70 -19 -52 -143 -433 -148 -455 -1 -5 -32 -107 -69 -225 -37 -118
-77 -251 -90 -295 -40 -136 -36 -131 -97 -139 -29 -3 -66 -8 -83 -11 -28 -4
-278 -40 -355 -51 -19 -3 -46 -7 -60 -9 -14 -3 -38 -7 -55 -9 -51 -7 -119 -18
-140 -22 -10 -2 -37 -6 -60 -9 -43 -7 -441 -71 -490 -80 -16 -3 -55 -10 -85
-15 -30 -5 -68 -12 -85 -15 -16 -3 -39 -7 -50 -9 -118 -20 -154 -27 -175 -31
-26 -5 -128 -24 -170 -31 -14 -3 -32 -7 -40 -9 -8 -2 -28 -7 -45 -9 -16 -3
-97 -19 -180 -36 -82 -18 -163 -34 -180 -36 -16 -3 -48 -10 -70 -16 -22 -5
-51 -12 -65 -15 -14 -2 -74 -16 -135 -30 -60 -14 -128 -29 -150 -34 -76 -15
-330 -80 -495 -126 -91 -25 -194 -54 -230 -63 -96 -27 -308 -94 -445 -140 -66
-23 -127 -43 -135 -45 -21 -5 -366 -135 -470 -178 -212 -86 -474 -204 -642
-288 -54 -27 -100 -49 -104 -49 -3 0 -3 12 0 28 4 15 9 41 12 57 3 17 26 127
50 245 25 118 48 226 50 239 3 12 12 53 20 90 9 36 18 75 20 86 2 11 20 85 40
165 19 80 37 152 39 160 7 32 66 248 85 315 12 39 30 99 40 135 71 243 202
588 342 900 206 458 558 1030 991 1610 70 95 85 109 150 144 129 69 829 420
952 478 188 88 257 119 305 140 63 27 98 42 152 67 26 11 50 21 53 21 2 0 28
11 57 24 399 181 1128 412 1611 510 52 11 82 17 106 21 14 2 47 9 75 14 60 12
65 13 261 46 83 13 173 27 200 30 28 4 61 8 75 10 14 2 50 7 80 10 30 3 66 8
80 10 14 2 50 7 80 10 30 3 75 8 100 11 67 8 97 11 185 18 44 4 96 9 115 11
19 2 73 7 120 11 47 3 101 7 120 9 19 2 87 6 150 10 63 4 116 8 117 9 1 1 16
3 32 4 29 2 30 1 21 -24z"/>
<path d="M20582 24576 c-8 -9 -117 -196 -180 -306 -11 -19 -52 -91 -92 -160
-40 -69 -87 -152 -105 -185 -36 -67 -63 -116 -105 -190 -175 -308 -458 -891
-620 -1275 -29 -69 -57 -129 -62 -134 -4 -6 -8 -16 -8 -24 0 -7 -9 -34 -21
-59 -84 -184 -306 -774 -397 -1053 -52 -161 -126 -407 -137 -458 -2 -9 -13
-53 -25 -97 -12 -44 -25 -98 -30 -120 -4 -22 -15 -73 -24 -112 -9 -40 -18 -87
-21 -105 -3 -18 -8 -40 -10 -48 -2 -8 -6 -33 -10 -55 -3 -22 -7 -51 -10 -65
-2 -14 -9 -61 -15 -105 -6 -44 -13 -95 -15 -113 -20 -138 -27 -620 -12 -755
12 -105 18 -151 29 -212 5 -33 12 -73 15 -90 8 -50 52 -224 85 -330 106 -344
323 -770 598 -1170 136 -197 123 -179 370 -516 118 -161 235 -320 260 -355
184 -254 224 -309 232 -319 5 -5 58 -80 118 -165 59 -85 117 -166 128 -180 23
-30 348 -519 406 -612 151 -241 336 -590 429 -808 83 -194 188 -508 211 -630
2 -14 9 -45 15 -70 5 -25 12 -56 14 -70 18 -97 27 -150 32 -180 9 -65 13 -107
30 -316 6 -65 6 -411 0 -499 -6 -100 -15 -214 -20 -255 -2 -19 -7 -62 -10 -95
-7 -68 -27 -219 -41 -295 -2 -14 -8 -52 -14 -85 -9 -57 -13 -76 -25 -135 -2
-14 -7 -38 -10 -55 -23 -147 -155 -702 -220 -930 -21 -71 -41 -146 -46 -165
-14 -53 -68 -240 -84 -289 -5 -18 16 -44 124 -153 72 -72 133 -129 136 -126
10 9 110 230 177 388 38 91 73 174 78 185 61 131 209 564 320 935 18 61 96
371 104 415 2 11 13 65 24 120 19 88 31 154 46 245 3 14 10 61 16 105 7 44 13
87 15 95 1 8 6 44 9 80 4 36 10 83 13 105 34 256 39 890 8 1200 -12 127 -16
161 -20 175 -2 8 -6 42 -10 75 -3 33 -7 67 -10 75 -2 8 -6 33 -9 55 -28 193
-116 565 -193 814 -57 185 -156 454 -240 651 -89 209 -378 797 -413 837 -5 7
-10 14 -10 17 0 15 -333 578 -503 851 -124 199 -126 204 -109 203 10 0 80 2
157 6 510 25 1250 21 1670 -9 28 -1 102 -6 164 -10 63 -3 117 -8 120 -10 4 -1
49 -6 102 -9 52 -4 104 -8 115 -10 10 -2 55 -7 99 -11 44 -4 87 -8 95 -10 8
-2 44 -6 80 -10 36 -4 72 -8 81 -10 8 -2 42 -6 75 -9 32 -4 68 -9 79 -11 11
-2 38 -7 60 -10 22 -3 81 -12 130 -20 50 -8 106 -16 125 -19 33 -5 242 -41
285 -50 11 -2 103 -21 205 -41 102 -20 194 -38 205 -41 11 -2 29 -6 40 -8 11
-2 103 -23 205 -46 102 -23 192 -44 200 -45 8 -2 17 -4 20 -5 3 -1 10 -3 15
-4 6 -1 21 -5 35 -9 30 -8 429 -107 450 -112 8 -1 112 -28 230 -60 118 -31
222 -58 230 -60 24 -5 202 -53 395 -105 222 -60 267 -73 280 -76 6 -1 84 -23
175 -49 91 -26 174 -48 185 -50 11 -2 54 -13 95 -25 113 -33 212 -60 237 -65
12 -3 33 -9 45 -14 13 -5 26 -9 31 -9 28 -1 107 -28 108 -36 0 -6 2 -18 3 -26
3 -14 8 -56 22 -175 3 -22 7 -51 9 -65 2 -14 6 -50 10 -80 3 -30 8 -66 10 -80
3 -14 7 -53 10 -88 4 -35 8 -71 10 -80 1 -9 6 -46 9 -82 4 -36 9 -82 11 -102
3 -21 7 -55 10 -75 4 -35 12 -125 20 -214 2 -19 6 -78 10 -130 4 -52 8 -110
10 -129 23 -248 23 -924 0 -1235 -2 -27 -6 -93 -9 -145 -7 -94 -12 -161 -21
-272 -13 -147 -16 -185 -20 -218 -2 -19 -7 -64 -10 -100 -3 -36 -8 -81 -10
-100 -3 -19 -7 -53 -9 -75 -10 -95 -18 -162 -21 -185 -4 -28 -13 -94 -21 -155
-3 -22 -9 -67 -14 -100 -5 -33 -12 -78 -15 -100 -6 -51 -26 -184 -31 -210 -2
-11 -6 -38 -9 -60 -3 -22 -7 -47 -10 -55 -2 -8 -7 -33 -10 -55 -3 -23 -8 -52
-11 -65 -3 -14 -7 -38 -10 -55 -2 -16 -8 -52 -14 -80 -6 -27 -12 -61 -15 -75
-8 -40 -26 -133 -31 -160 -3 -14 -19 -86 -35 -160 -37 -163 -34 -149 -54 -235
-9 -38 -18 -77 -20 -85 -8 -34 -93 -336 -100 -352 -5 -12 -3 -18 5 -18 13 0
282 89 288 95 16 16 220 538 320 820 91 255 290 882 318 1000 8 33 10 38 27
95 16 55 55 201 62 231 2 8 10 39 19 67 8 29 13 52 10 52 -3 0 0 8 5 18 5 9
12 31 15 47 3 17 14 68 26 115 100 414 212 983 255 1300 3 25 8 56 10 70 4 28
12 87 20 153 3 23 10 74 15 112 5 39 12 97 15 130 4 33 8 76 10 95 4 33 13
129 20 215 2 22 7 87 10 145 4 58 8 121 10 140 21 206 21 1032 1 1195 -2 17
-7 75 -11 130 -3 55 -8 116 -11 135 -2 19 -6 62 -9 95 -3 33 -7 71 -10 85 -2
14 -9 61 -14 105 -6 44 -13 96 -16 115 -3 19 -7 55 -10 80 -2 25 -7 56 -10 70
-6 30 -12 70 -20 130 -3 25 -10 68 -15 95 -5 28 -11 66 -14 85 -15 102 -46
275 -91 495 -3 17 -8 44 -11 60 -3 17 -12 56 -20 88 -7 32 -16 73 -19 90 -3
18 -8 40 -11 49 -3 9 -6 25 -8 35 -2 11 -11 48 -20 84 -9 35 -18 73 -20 84 -3
11 -22 88 -44 170 -131 497 -287 948 -509 1468 -50 118 -98 224 -212 472 -51
109 -327 660 -401 800 -29 55 -77 147 -108 205 -30 58 -71 137 -92 175 -21 39
-61 115 -90 170 -29 55 -65 123 -80 150 -15 28 -51 95 -80 150 -29 55 -67 127
-85 160 -18 33 -59 110 -91 170 -32 61 -65 123 -74 139 -9 17 -27 33 -41 37
-13 4 -76 24 -139 44 -286 92 -1192 374 -1370 427 -159 47 -648 188 -670 193
-8 2 -67 17 -130 34 -281 74 -542 138 -632 155 -13 2 -43 9 -68 15 -25 5 -56
12 -70 15 -14 3 -36 7 -50 10 -214 46 -633 118 -825 142 -22 3 -69 9 -105 14
-36 5 -86 12 -112 15 -171 19 -214 23 -288 30 -36 3 -81 8 -100 10 -19 3 -71
8 -115 11 -44 3 -93 7 -110 9 -16 1 -82 5 -145 9 -63 4 -135 9 -160 11 -50 4
-207 12 -410 21 -289 12 -329 12 -338 0z m868 -1251 c117 -7 189 -12 270 -19
30 -2 96 -7 145 -11 50 -3 104 -8 120 -10 17 -2 62 -7 100 -10 39 -3 86 -8
105 -10 35 -4 84 -9 190 -20 30 -3 70 -8 88 -11 80 -11 100 -13 147 -19 28 -4
61 -8 74 -10 13 -2 45 -7 70 -10 85 -12 395 -66 521 -92 69 -13 133 -26 143
-28 10 -3 26 -6 35 -9 9 -3 28 -7 42 -10 14 -2 66 -14 115 -26 50 -12 97 -24
105 -25 148 -34 552 -151 860 -249 353 -112 986 -330 1007 -347 6 -6 34 -49
63 -97 42 -71 126 -211 170 -282 67 -110 330 -567 330 -575 0 -3 10 -22 23
-43 48 -76 256 -482 352 -687 176 -375 336 -788 465 -1200 23 -71 43 -137 45
-146 2 -8 11 -40 20 -70 9 -30 21 -70 25 -89 5 -19 25 -93 44 -165 51 -182
160 -646 200 -845 2 -14 9 -47 15 -75 6 -27 13 -61 16 -75 2 -14 7 -36 10 -50
3 -14 7 -36 10 -50 33 -176 47 -248 51 -262 5 -17 -32 -6 -346 107 -36 13
-110 40 -165 59 -55 20 -134 48 -175 62 -41 14 -83 29 -92 34 -10 6 -25 10
-33 10 -8 0 -23 4 -33 10 -61 34 -1133 385 -1432 469 -36 11 -108 31 -160 45
-413 117 -998 250 -1390 316 -69 11 -136 23 -150 26 -14 2 -86 13 -160 24 -74
11 -146 22 -160 25 -14 2 -45 6 -70 10 -25 3 -56 8 -70 10 -14 2 -47 7 -75 10
-27 3 -61 8 -75 10 -14 2 -52 6 -85 10 -33 3 -71 8 -85 10 -14 2 -52 6 -85 10
-33 3 -73 8 -90 10 -16 2 -57 7 -90 10 -33 3 -78 8 -100 10 -39 4 -95 9 -212
20 -32 3 -81 8 -109 11 -29 2 -81 7 -115 9 -35 3 -93 7 -129 10 -118 10 -174
14 -275 20 -55 3 -120 8 -145 10 -25 2 -97 7 -160 10 -63 4 -140 8 -170 10
-30 2 -116 7 -190 10 -74 4 -169 8 -210 10 -66 3 -294 13 -463 20 -31 1 -59 4
-61 6 -2 2 -7 24 -11 49 -3 25 -8 56 -10 70 -6 38 -22 198 -26 255 -9 171 0
578 16 678 2 12 6 45 10 72 12 101 37 252 55 335 10 47 21 96 24 110 8 41 13
62 31 130 9 36 18 72 20 80 11 52 106 342 160 485 107 287 196 487 369 833
102 205 115 229 269 507 275 495 340 605 357 600 8 -3 62 -7 120 -10z"/>
</g>
</svg>
